<?xml version="1.0" encoding="utf-8"?>
<!-- Generator: Adobe Illustrator 23.0.1, SVG Export Plug-In . SVG Version: 6.00 Build 0)  -->
<svg version="1.1" id="Layer_1" xmlns="http://www.w3.org/2000/svg" xmlns:xlink="http://www.w3.org/1999/xlink" x="0px" y="0px"
	 viewBox="0 0 595.28 841.89" style="enable-background:new 0 0 595.28 841.89;" xml:space="preserve">
<style type="text/css">
	.st0{fill:none;stroke:#000000;stroke-width:0.5;stroke-miterlimit:10;}
	.st1{fill:none;}
</style>
<line class="st0" x1="14.76" y1="358.18" x2="23.11" y2="326.38"/>
<line class="st0" x1="22.65" y1="319.89" x2="23.11" y2="326.38"/>
<line class="st0" x1="63.72" y1="315.24" x2="22.65" y2="319.89"/>
<line class="st0" x1="63.49" y1="323.6" x2="63.03" y2="315.24"/>
<line class="st0" x1="80.66" y1="314.55" x2="71.38" y2="319.89"/>
<line class="st0" x1="70.92" y1="323.13" x2="70.92" y2="320.58"/>
<line class="st0" x1="45.86" y1="324.76" x2="70.92" y2="323.13"/>
<polyline class="st0" points="34.49,363.51 37.59,357.54 37.24,354.14 41.5,347.44 45.86,324.76 "/>
<rect x="49.45" y="326.62" class="st0" width="2.2" height="3.6"/>
<rect x="55.33" y="326.63" class="st0" width="2.2" height="3.6"/>
<rect x="62.18" y="326.31" class="st0" width="2.2" height="3.6"/>
<line class="st0" x1="56.65" y1="315.82" x2="56.65" y2="314.78"/>
<line class="st0" x1="53.98" y1="312.46" x2="56.65" y2="314.78"/>
<rect x="53.98" y="303.41" class="st0" width="5.57" height="8.93"/>
<polyline class="st0" points="59.55,303.41 58.74,302.13 56.88,300.86 54.79,301.67 53.4,303.41 "/>
<line class="st0" x1="69.18" y1="308.17" x2="59.32" y2="311.65"/>
<line class="st0" x1="69.29" y1="311.18" x2="69.18" y2="304.22"/>
<line class="st0" x1="63.26" y1="310.37" x2="63.14" y2="308.17"/>
<line class="st0" x1="66.39" y1="309.33" x2="66.39" y2="307.47"/>
<line class="st0" x1="69.18" y1="304.22" x2="59.78" y2="306.89"/>
<line class="st0" x1="72.08" y1="305.61" x2="69.76" y2="304.34"/>
<line class="st0" x1="72.31" y1="311.07" x2="71.96" y2="301.79"/>
<line class="st0" x1="70.57" y1="294.82" x2="70.69" y2="299"/>
<line class="st0" x1="71.96" y1="301.79" x2="70.69" y2="299"/>
<line class="st0" x1="76.37" y1="298.65" x2="70.69" y2="299"/>
<line class="st0" x1="76.02" y1="295.52" x2="70.69" y2="295.52"/>
<line class="st0" x1="76.14" y1="300.62" x2="76.02" y2="295.52"/>
<line class="st0" x1="93.43" y1="300.28" x2="76.14" y2="300.62"/>
<line class="st0" x1="97.95" y1="297.03" x2="76.14" y2="296.56"/>
<line class="st0" x1="74.63" y1="311.3" x2="74.52" y2="308.51"/>
<polyline class="st0" points="81.71,306.54 77.76,306.66 74.52,308.51 "/>
<line class="st0" x1="84.96" y1="307.47" x2="82.17" y2="308.4"/>
<line class="st0" x1="84.84" y1="305.03" x2="84.96" y2="307.47"/>
<line class="st0" x1="81.82" y1="308.4" x2="81.82" y2="307.01"/>
<line class="st0" x1="91.46" y1="303.06" x2="84.84" y2="305.03"/>
<line class="st0" x1="67.9" y1="331.26" x2="87.28" y2="310.95"/>
<line class="st0" x1="92.73" y1="301.09" x2="87.28" y2="310.95"/>
<polyline class="st0" points="115.82,282.87 108.28,289.95 100.84,294.69 92.73,301.09 "/>
<line class="st0" x1="115.59" y1="287.51" x2="116.05" y2="279.16"/>
<line class="st0" x1="109.79" y1="288.56" x2="108.05" y2="288.09"/>
<line class="st0" x1="108.16" y1="280.55" x2="108.05" y2="288.09"/>
<line class="st0" x1="110.6" y1="280.55" x2="108.16" y2="280.55"/>
<line class="st0" x1="108.4" y1="277.3" x2="110.6" y2="280.2"/>
<line class="st0" x1="117.79" y1="276.84" x2="108.4" y2="277.3"/>
<line class="st0" x1="107.93" y1="286.35" x2="79.04" y2="286.24"/>
<line class="st0" x1="77.76" y1="296.1" x2="79.04" y2="286.24"/>
<rect x="79.39" y="280.9" class="st0" width="2.44" height="5.34"/>
<rect x="108.51" y="266.74" class="st0" width="6.27" height="10.21"/>
<polyline class="st0" points="115.6,266.72 114.66,265.05 112.43,263.42 109.83,264.6 108.05,266.98 "/>
<polyline class="st0" points="122.2,272.31 118.37,272.08 115.36,270.11 "/>
<line class="st0" x1="116.05" y1="279.16" x2="125.45" y2="268.48"/>
<line class="st0" x1="124.18" y1="281.36" x2="125.45" y2="268.48"/>
<line class="st0" x1="142.62" y1="270.34" x2="125.34" y2="268.83"/>
<line class="st0" x1="142.74" y1="264.89" x2="142.62" y2="270.34"/>
<line class="st0" x1="191.36" y1="265.24" x2="142.74" y2="265.24"/>
<rect x="153.76" y="257.69" class="st0" width="5.45" height="11.84"/>
<polygon class="st0" points="176.39,269.12 171.05,269.61 171.05,257.77 176.51,257.77 "/>
<line class="st0" x1="157.59" y1="273.56" x2="154.58" y2="270.23"/>
<line class="st0" x1="148.66" y1="270.34" x2="154.92" y2="270.46"/>
<line class="st0" x1="148.54" y1="281.36" x2="148.66" y2="270.34"/>
<path class="st0" d="M148.54,281.36l-2.9,27.27c0,0-0.7,6.85,1.62,16.59"/>
<line class="st0" x1="159.1" y1="261.06" x2="154.11" y2="261.06"/>
<line class="st0" x1="159.1" y1="264.77" x2="154.11" y2="264.77"/>
<line class="st0" x1="156.55" y1="268.83" x2="156.66" y2="258.04"/>
<polygon class="st0" points="156.49,252.82 161.07,258.04 151.9,258.04 "/>
<polygon class="st0" points="173.89,252.86 178.48,258.08 169.31,258.08 "/>
<polygon class="st0" points="191.18,252.74 195.77,257.96 186.59,257.96 "/>
<polygon class="st0" points="208.66,252.74 213.25,257.96 204.08,257.96 "/>
<line class="st0" x1="154.81" y1="283.31" x2="152.84" y2="277.19"/>
<line class="st0" x1="148.77" y1="277.42" x2="152.84" y2="277.19"/>
<line class="st0" x1="151.09" y1="286.47" x2="148.77" y2="277.42"/>
<line class="st0" x1="153.53" y1="283.68" x2="151.09" y2="286.47"/>
<line class="st0" x1="157.24" y1="283.45" x2="153.88" y2="283.57"/>
<line class="st0" x1="160.26" y1="288.56" x2="157.24" y2="283.45"/>
<line class="st0" x1="156.55" y1="291.69" x2="153.53" y2="283.68"/>
<line class="st0" x1="159.8" y1="288.79" x2="156.55" y2="291.69"/>
<line class="st0" x1="162.7" y1="289.02" x2="159.8" y2="288.79"/>
<line class="st0" x1="161.19" y1="296.45" x2="159.45" y2="288.67"/>
<line class="st0" x1="163.63" y1="291.81" x2="161.54" y2="296.45"/>
<line class="st0" x1="165.02" y1="294.13" x2="163.97" y2="292.04"/>
<rect x="164.21" y="280.09" class="st0" width="7.54" height="13.58"/>
<polyline class="st0" points="173.3,279.86 172.1,277.92 169.33,275.99 166.19,277.26 164.09,279.93 "/>
<line class="st0" x1="163.86" y1="284.84" x2="160.38" y2="284.84"/>
<line class="st0" x1="158.17" y1="283.45" x2="160.84" y2="283.34"/>
<line class="st0" x1="160.26" y1="285.19" x2="160.26" y2="283.22"/>
<line class="st0" x1="161.65" y1="281.71" x2="160.26" y2="283.22"/>
<line class="st0" x1="163.86" y1="281.71" x2="161.65" y2="281.71"/>
<line class="st0" x1="173.3" y1="279.86" x2="171.75" y2="280.09"/>
<line class="st0" x1="168.96" y1="276.61" x2="169.08" y2="274.29"/>
<line class="st0" x1="177.43" y1="286.47" x2="171.86" y2="282.87"/>
<line class="st0" x1="197.39" y1="285.77" x2="177.43" y2="286.47"/>
<line class="st0" x1="197.27" y1="288.79" x2="197.39" y2="285.77"/>
<line class="st0" x1="220.02" y1="249.8" x2="149.82" y2="249.92"/>
<line class="st0" x1="219.67" y1="248.26" x2="147.76" y2="248.26"/>
<line class="st0" x1="147.32" y1="265.21" x2="147.32" y2="260.94"/>
<line class="st0" x1="145.67" y1="265.38" x2="145.76" y2="260.94"/>
<line class="st0" x1="150.2" y1="247.98" x2="147.67" y2="260.77"/>
<line class="st0" x1="147.68" y1="247.66" x2="145.16" y2="260.45"/>
<line class="st0" x1="153.59" y1="260.86" x2="144.97" y2="260.77"/>
<line class="st0" x1="153.68" y1="262.94" x2="147.67" y2="262.94"/>
<line class="st0" x1="171.17" y1="260.51" x2="159.51" y2="260.42"/>
<line class="st0" x1="171.1" y1="262.85" x2="159.44" y2="262.76"/>
<line class="st0" x1="171.27" y1="265.2" x2="159.61" y2="265.11"/>
<line class="st0" x1="188.77" y1="260.06" x2="176.65" y2="259.99"/>
<line class="st0" x1="188.59" y1="262.5" x2="176.56" y2="262.25"/>
<line class="st0" x1="188.68" y1="265.2" x2="177.02" y2="265.11"/>
<line class="st0" x1="205.8" y1="259.77" x2="193.97" y2="259.64"/>
<line class="st0" x1="204.93" y1="262.34" x2="193.88" y2="262.34"/>
<line class="st0" x1="173.69" y1="269.21" x2="173.69" y2="257.98"/>
<line class="st0" x1="176.53" y1="261.32" x2="170.91" y2="261.29"/>
<line class="st0" x1="176.53" y1="264.93" x2="170.91" y2="264.9"/>
<line class="st0" x1="205.8" y1="257.9" x2="205.8" y2="262.2"/>
<line class="st0" x1="208.53" y1="257.95" x2="208.5" y2="261.64"/>
<line class="st0" x1="211.23" y1="258.09" x2="211.2" y2="260.77"/>
<line class="st0" x1="188.57" y1="257.81" x2="188.57" y2="265.64"/>
<line class="st0" x1="193.75" y1="257.85" x2="193.71" y2="265.03"/>
<line class="st0" x1="191.36" y1="258.03" x2="191.36" y2="265.24"/>
<line class="st0" x1="188.46" y1="258.03" x2="188.31" y2="266.25"/>
<line class="st0" x1="188.66" y1="261.29" x2="193.79" y2="261.29"/>
<line class="st0" x1="157.24" y1="273.65" x2="291.84" y2="241.91"/>
<polyline class="st0" points="289.05,287.17 292.3,261.17 291.84,241.91 "/>
<line class="st0" x1="305.53" y1="241.91" x2="291.14" y2="241.68"/>
<polyline class="st0" points="307.39,288.33 306.92,260.48 305.44,241.01 "/>
<line class="st0" x1="219.9" y1="258.62" x2="218.97" y2="233.79"/>
<line class="st0" x1="223.9" y1="233.18" x2="219.2" y2="234.49"/>
<line class="st0" x1="232.66" y1="216.39" x2="219.12" y2="233.84"/>
<line class="st0" x1="232.43" y1="212.47" x2="217.58" y2="232.17"/>
<line class="st0" x1="219.46" y1="234.31" x2="217.43" y2="232.21"/>
<line class="st0" x1="232.66" y1="216.39" x2="232.2" y2="208.5"/>
<line class="st0" x1="235.39" y1="214.65" x2="234.17" y2="207.51"/>
<line class="st0" x1="232.2" y1="208.5" x2="233.91" y2="207.51"/>
<line class="st0" x1="239.22" y1="209.16" x2="234.17" y2="207.95"/>
<line class="st0" x1="235.39" y1="214.65" x2="240.61" y2="210.73"/>
<line class="st0" x1="245.31" y1="201.25" x2="240.96" y2="210.73"/>
<line class="st0" x1="245.4" y1="197.33" x2="237.3" y2="212.91"/>
<line class="st0" x1="253.58" y1="210.12" x2="245.57" y2="201.51"/>
<line class="st0" x1="247.22" y1="214.73" x2="245.14" y2="215.17"/>
<line class="st0" x1="246.96" y1="210.64" x2="244.53" y2="210.99"/>
<line class="st0" x1="244.96" y1="215.52" x2="244.79" y2="210.99"/>
<line class="st0" x1="246.7" y1="210.56" x2="246.96" y2="214.82"/>
<line class="st0" x1="239.39" y1="227.79" x2="241.39" y2="222.04"/>
<line class="st0" x1="240.96" y1="210.73" x2="241.39" y2="222.04"/>
<line class="st0" x1="253.49" y1="209.6" x2="253.66" y2="221.17"/>
<line class="st0" x1="259.58" y1="229.09" x2="253.66" y2="221.17"/>
<line class="st0" x1="258.71" y1="211.69" x2="259.41" y2="223.96"/>
<line class="st0" x1="266.28" y1="214.3" x2="254.36" y2="210.47"/>
<line class="st0" x1="265.06" y1="212.47" x2="265.24" y2="208.9"/>
<line class="st0" x1="259.06" y1="206.9" x2="265.24" y2="208.9"/>
<line class="st0" x1="265.15" y1="212.73" x2="259.06" y2="206.9"/>
<line class="st0" x1="266.54" y1="207.51" x2="247.75" y2="200.64"/>
<line class="st0" x1="256.71" y1="203.68" x2="256.71" y2="201.94"/>
<line class="st0" x1="254.27" y1="201.51" x2="256.71" y2="201.94"/>
<line class="st0" x1="254.27" y1="199.59" x2="254.36" y2="201.16"/>
<line class="st0" x1="250.88" y1="199.59" x2="254.27" y2="199.59"/>
<line class="st0" x1="250.88" y1="201.33" x2="250.88" y2="199.59"/>
<line class="st0" x1="267.24" y1="212.21" x2="266.89" y2="196.98"/>
<line class="st0" x1="268.98" y1="196.02" x2="266.89" y2="196.98"/>
<line class="st0" x1="269.24" y1="209.77" x2="268.98" y2="196.02"/>
<line class="st0" x1="274.11" y1="203.77" x2="274.11" y2="198.29"/>
<line class="st0" x1="272.2" y1="204.12" x2="272.2" y2="205.42"/>
<line class="st0" x1="259.84" y1="223.87" x2="272.2" y2="205.42"/>
<line class="st0" x1="254.62" y1="210.64" x2="245.4" y2="197.33"/>
<line class="st0" x1="333.38" y1="188.54" x2="272.55" y2="204.73"/>
<line class="st0" x1="278.99" y1="202.9" x2="278.9" y2="199.94"/>
<line class="st0" x1="268.98" y1="196.02" x2="278.99" y2="199.68"/>
<line class="st0" x1="288.39" y1="200.2" x2="288.3" y2="194.55"/>
<line class="st0" x1="291.61" y1="199.42" x2="291.52" y2="192.8"/>
<line class="st0" x1="293.78" y1="199.07" x2="293.69" y2="193.67"/>
<line class="st0" x1="291.52" y1="192.8" x2="293.78" y2="193.41"/>
<line class="st0" x1="287.86" y1="194.63" x2="291.52" y2="192.8"/>
<line class="st0" x1="279.83" y1="203.04" x2="279.08" y2="205.19"/>
<line class="st0" x1="281.63" y1="204.9" x2="278.96" y2="205.36"/>
<line class="st0" x1="282.67" y1="202.29" x2="281.63" y2="204.9"/>
<line class="st0" x1="303.5" y1="196.49" x2="302.86" y2="198.58"/>
<line class="st0" x1="305.47" y1="198.17" x2="302.86" y2="198.58"/>
<line class="st0" x1="306.57" y1="195.79" x2="305.47" y2="198.17"/>
<line class="st0" x1="324.15" y1="191.04" x2="322.99" y2="193.59"/>
<line class="st0" x1="325.31" y1="193.24" x2="322.99" y2="193.59"/>
<line class="st0" x1="326.65" y1="190.46" x2="325.31" y2="193.24"/>
<line class="st0" x1="330.42" y1="189.47" x2="329.66" y2="191.33"/>
<line class="st0" x1="331.64" y1="191.56" x2="329.61" y2="191.56"/>
<line class="st0" x1="332.8" y1="188.71" x2="331.64" y2="191.56"/>
<line class="st0" x1="336.68" y1="188.25" x2="336.57" y2="177.11"/>
<line class="st0" x1="333.03" y1="179.03" x2="336.57" y2="177.11"/>
<line class="st0" x1="333.38" y1="188.54" x2="333.38" y2="178.97"/>
<line class="st0" x1="341.44" y1="186.8" x2="341.5" y2="180.48"/>
<line class="st0" x1="336.22" y1="177.29" x2="341.5" y2="180.48"/>
<line class="st0" x1="326.01" y1="204.55" x2="336.68" y2="188.25"/>
<line class="st0" x1="327.52" y1="205.89" x2="326.01" y2="204.73"/>
<line class="st0" x1="314.46" y1="209.66" x2="327.52" y2="205.89"/>
<line class="st0" x1="315.28" y1="203.62" x2="315.39" y2="209.6"/>
<line class="st0" x1="312.03" y1="199.91" x2="315.28" y2="203.62"/>
<line class="st0" x1="308.66" y1="205.6" x2="312.03" y2="199.91"/>
<line class="st0" x1="309.47" y1="204.2" x2="309.71" y2="210.7"/>
<line class="st0" x1="317.65" y1="207.16" x2="317.54" y2="202.73"/>
<line class="st0" x1="312.14" y1="200.03" x2="317.71" y2="202.75"/>
<line class="st0" x1="314" y1="207.72" x2="314" y2="220.16"/>
<line class="st0" x1="311.39" y1="220.8" x2="314" y2="220.16"/>
<line class="st0" x1="311.39" y1="208.36" x2="314" y2="207.72"/>
<line class="st0" x1="311.33" y1="210.97" x2="313.94" y2="210.33"/>
<line class="st0" x1="311.51" y1="214.28" x2="314.12" y2="213.64"/>
<line class="st0" x1="311.51" y1="217.35" x2="314.12" y2="216.72"/>
<line class="st0" x1="311.51" y1="208.36" x2="311.51" y2="221.07"/>
<line class="st0" x1="301.31" y1="210.88" x2="301.31" y2="223.31"/>
<line class="st0" x1="298.7" y1="223.95" x2="301.31" y2="223.31"/>
<line class="st0" x1="298.7" y1="211.51" x2="301.31" y2="210.88"/>
<line class="st0" x1="298.65" y1="214.13" x2="301.26" y2="213.49"/>
<line class="st0" x1="298.82" y1="217.43" x2="301.43" y2="216.79"/>
<line class="st0" x1="298.82" y1="220.51" x2="301.43" y2="219.87"/>
<line class="st0" x1="298.82" y1="211.51" x2="298.82" y2="224.22"/>
<line class="st0" x1="276.6" y1="217.2" x2="276.6" y2="229.63"/>
<line class="st0" x1="273.99" y1="230.27" x2="276.6" y2="229.63"/>
<line class="st0" x1="273.99" y1="217.84" x2="276.6" y2="217.2"/>
<line class="st0" x1="273.93" y1="220.45" x2="276.54" y2="219.81"/>
<line class="st0" x1="274.11" y1="223.76" x2="276.72" y2="223.12"/>
<line class="st0" x1="274.11" y1="226.83" x2="276.72" y2="226.19"/>
<line class="st0" x1="274.11" y1="217.84" x2="274.11" y2="230.54"/>
<line class="st0" x1="302.72" y1="206.97" x2="302.84" y2="212.95"/>
<line class="st0" x1="299.47" y1="203.26" x2="302.72" y2="206.97"/>
<line class="st0" x1="296.11" y1="208.94" x2="299.47" y2="203.26"/>
<line class="st0" x1="296.92" y1="207.55" x2="297.15" y2="214.05"/>
<line class="st0" x1="305.1" y1="210.51" x2="304.98" y2="206.07"/>
<line class="st0" x1="299.59" y1="203.37" x2="305.16" y2="206.1"/>
<line class="st0" x1="290.09" y1="210.73" x2="290.2" y2="216.47"/>
<line class="st0" x1="286.97" y1="207.16" x2="290.09" y2="210.73"/>
<line class="st0" x1="283.74" y1="212.62" x2="286.97" y2="207.16"/>
<line class="st0" x1="284.52" y1="211.29" x2="284.74" y2="217.53"/>
<line class="st0" x1="292.38" y1="214.13" x2="292.27" y2="209.86"/>
<line class="st0" x1="287.08" y1="207.27" x2="292.43" y2="209.89"/>
<line class="st0" x1="277.77" y1="213.18" x2="277.88" y2="218.92"/>
<line class="st0" x1="274.65" y1="209.61" x2="277.77" y2="213.18"/>
<line class="st0" x1="271.42" y1="215.07" x2="274.65" y2="209.61"/>
<line class="st0" x1="272.2" y1="213.73" x2="272.55" y2="220.48"/>
<line class="st0" x1="280.06" y1="216.58" x2="279.95" y2="212.31"/>
<line class="st0" x1="274.76" y1="209.72" x2="280.11" y2="212.34"/>
<line class="st0" x1="288.63" y1="214.3" x2="288.63" y2="226.73"/>
<line class="st0" x1="286.02" y1="227.37" x2="288.63" y2="226.73"/>
<line class="st0" x1="286.02" y1="214.94" x2="288.63" y2="214.3"/>
<line class="st0" x1="285.96" y1="217.55" x2="288.57" y2="216.91"/>
<line class="st0" x1="286.13" y1="220.85" x2="288.74" y2="220.22"/>
<line class="st0" x1="286.13" y1="223.93" x2="288.74" y2="223.29"/>
<line class="st0" x1="286.13" y1="214.94" x2="286.13" y2="227.64"/>
<line class="st0" x1="327.29" y1="241.01" x2="327" y2="206.18"/>
<line class="st0" x1="325.07" y1="241.28" x2="324.79" y2="207.57"/>
<line class="st0" x1="308.49" y1="241.15" x2="308.55" y2="211.63"/>
<line class="st0" x1="296.36" y1="241.45" x2="295.78" y2="214.53"/>
<line class="st0" x1="277.8" y1="245.05" x2="277.41" y2="219.21"/>
<line class="st0" x1="260.74" y1="248.88" x2="260.01" y2="223.85"/>
<line class="st0" x1="320.96" y1="234.14" x2="321.08" y2="226.6"/>
<line class="st0" x1="319.11" y1="234.57" x2="319.22" y2="227.02"/>
<line class="st0" x1="317.13" y1="235.26" x2="317.25" y2="227.72"/>
<line class="st0" x1="321.06" y1="226.87" x2="317.1" y2="227.74"/>
<line class="st0" x1="321.02" y1="229.27" x2="317.21" y2="230.12"/>
<line class="st0" x1="320.81" y1="232.01" x2="317.33" y2="232.79"/>
<line class="st0" x1="320.92" y1="233.99" x2="317.23" y2="234.97"/>
<line class="st0" x1="307.13" y1="237.31" x2="307.25" y2="229.77"/>
<line class="st0" x1="305.28" y1="237.74" x2="305.39" y2="230.2"/>
<line class="st0" x1="303.31" y1="238.43" x2="303.42" y2="230.89"/>
<line class="st0" x1="307.24" y1="230.05" x2="303.28" y2="230.92"/>
<line class="st0" x1="307.19" y1="232.44" x2="303.38" y2="233.29"/>
<line class="st0" x1="306.98" y1="235.18" x2="303.5" y2="235.96"/>
<line class="st0" x1="307.1" y1="237.16" x2="303.41" y2="238.14"/>
<line class="st0" x1="295.43" y1="240.05" x2="295.55" y2="232.51"/>
<line class="st0" x1="293.57" y1="240.48" x2="293.69" y2="232.94"/>
<line class="st0" x1="291.6" y1="241.17" x2="291.72" y2="233.63"/>
<line class="st0" x1="295.53" y1="232.79" x2="291.57" y2="233.66"/>
<line class="st0" x1="295.49" y1="235.18" x2="291.68" y2="236.03"/>
<line class="st0" x1="295.28" y1="237.93" x2="291.79" y2="238.7"/>
<line class="st0" x1="295.39" y1="239.9" x2="291.7" y2="240.88"/>
<line class="st0" x1="283.45" y1="243.06" x2="283.56" y2="235.51"/>
<line class="st0" x1="281.59" y1="243.48" x2="281.7" y2="235.94"/>
<line class="st0" x1="279.62" y1="244.18" x2="279.73" y2="236.63"/>
<line class="st0" x1="283.55" y1="235.79" x2="279.59" y2="236.66"/>
<line class="st0" x1="283.5" y1="238.18" x2="279.69" y2="239.03"/>
<line class="st0" x1="283.29" y1="240.93" x2="279.81" y2="241.7"/>
<line class="st0" x1="283.41" y1="242.9" x2="279.72" y2="243.88"/>
<line class="st0" x1="272.39" y1="246.06" x2="272.51" y2="238.52"/>
<line class="st0" x1="270.54" y1="246.48" x2="270.65" y2="238.94"/>
<line class="st0" x1="268.56" y1="247.18" x2="268.68" y2="239.64"/>
<line class="st0" x1="272.5" y1="238.79" x2="268.54" y2="239.66"/>
<line class="st0" x1="272.45" y1="241.18" x2="268.64" y2="242.03"/>
<line class="st0" x1="272.24" y1="243.93" x2="268.76" y2="244.7"/>
<line class="st0" x1="272.35" y1="245.9" x2="268.67" y2="246.88"/>
<line class="st0" x1="244.96" y1="252.68" x2="244.96" y2="246.76"/>
<line class="st0" x1="242.26" y1="247.54" x2="244.96" y2="246.76"/>
<line class="st0" x1="242.53" y1="253.2" x2="242.7" y2="247.45"/>
<line class="st0" x1="239.39" y1="227.18" x2="239.83" y2="253.72"/>
<line class="st0" x1="235.65" y1="247.8" x2="239.48" y2="247.11"/>
<line class="st0" x1="235.65" y1="250.33" x2="239.65" y2="249.46"/>
<line class="st0" x1="235.65" y1="252.41" x2="239.57" y2="251.2"/>
<line class="st0" x1="236.17" y1="254.94" x2="236" y2="247.54"/>
<line class="st0" x1="228.17" y1="256.94" x2="228.08" y2="249.63"/>
<line class="st0" x1="224.69" y1="250.94" x2="228.08" y2="249.63"/>
<line class="st0" x1="225.21" y1="257.64" x2="225.21" y2="250.76"/>
<line class="st0" x1="228.17" y1="251.63" x2="225.21" y2="252.85"/>
<line class="st0" x1="228.17" y1="253.81" x2="225.12" y2="254.68"/>
<line class="st0" x1="227.95" y1="232.14" x2="227.95" y2="241.85"/>
<line class="st0" x1="225.1" y1="242.35" x2="227.95" y2="241.85"/>
<line class="st0" x1="225.1" y1="232.64" x2="227.95" y2="232.14"/>
<line class="st0" x1="225.03" y1="234.68" x2="227.89" y2="234.18"/>
<line class="st0" x1="225.22" y1="237.26" x2="228.08" y2="236.76"/>
<line class="st0" x1="225.22" y1="239.66" x2="228.08" y2="239.16"/>
<line class="st0" x1="225.22" y1="232.64" x2="225.22" y2="242.56"/>
<line class="st0" x1="237.7" y1="229.78" x2="237.7" y2="239.03"/>
<line class="st0" x1="234.75" y1="239.51" x2="237.7" y2="239.03"/>
<line class="st0" x1="234.75" y1="230.25" x2="237.7" y2="229.78"/>
<line class="st0" x1="234.68" y1="232.2" x2="237.63" y2="231.72"/>
<line class="st0" x1="234.88" y1="234.66" x2="237.83" y2="234.18"/>
<line class="st0" x1="234.88" y1="236.95" x2="237.83" y2="236.47"/>
<line class="st0" x1="234.88" y1="230.25" x2="234.88" y2="239.71"/>
<line class="st0" x1="244.6" y1="226.21" x2="244.6" y2="237.41"/>
<line class="st0" x1="242.31" y1="237.99" x2="244.6" y2="237.41"/>
<line class="st0" x1="242.31" y1="226.79" x2="244.6" y2="226.21"/>
<line class="st0" x1="242.26" y1="229.14" x2="244.55" y2="228.56"/>
<line class="st0" x1="242.41" y1="232.12" x2="244.7" y2="231.54"/>
<line class="st0" x1="242.41" y1="234.89" x2="244.7" y2="234.31"/>
<line class="st0" x1="242.41" y1="226.79" x2="242.41" y2="238.23"/>
<line class="st0" x1="248.77" y1="225.64" x2="248.77" y2="239.32"/>
<line class="st0" x1="246.62" y1="240.02" x2="248.77" y2="239.32"/>
<line class="st0" x1="246.62" y1="226.34" x2="248.77" y2="225.64"/>
<line class="st0" x1="246.58" y1="229.21" x2="248.73" y2="228.51"/>
<line class="st0" x1="246.72" y1="232.85" x2="248.87" y2="232.15"/>
<line class="st0" x1="246.72" y1="236.23" x2="248.87" y2="235.53"/>
<line class="st0" x1="246.72" y1="226.34" x2="246.72" y2="240.32"/>
<line class="st0" x1="223.9" y1="233.18" x2="223.9" y2="229.88"/>
<line class="st0" x1="226.17" y1="225.52" x2="222.6" y2="230.57"/>
<line class="st0" x1="228.34" y1="228.66" x2="226.17" y2="225.52"/>
<line class="st0" x1="231.04" y1="227.7" x2="228.34" y2="228.66"/>
<line class="st0" x1="226.21" y1="225.66" x2="231.04" y2="227.7"/>
<line class="st0" x1="230.69" y1="231.27" x2="230.69" y2="227.87"/>
<line class="st0" x1="228.78" y1="231.88" x2="228.86" y2="228.48"/>
<line class="st0" x1="233.56" y1="230.75" x2="233.56" y2="226.22"/>
<line class="st0" x1="232.61" y1="227.44" x2="235.74" y2="222.39"/>
<line class="st0" x1="239.65" y1="227.35" x2="235.74" y2="222.39"/>
<line class="st0" x1="240.7" y1="224.48" x2="235.74" y2="222.39"/>
<line class="st0" x1="233.69" y1="230.69" x2="228.91" y2="231.88"/>
<line class="st0" x1="272.55" y1="220.48" x2="259.93" y2="223.52"/>
<line class="st0" x1="284.38" y1="217.43" x2="278.23" y2="218.97"/>
<line class="st0" x1="297.15" y1="214.05" x2="290.2" y2="215.85"/>
<line class="st0" x1="310.05" y1="210.73" x2="302.74" y2="212.63"/>
<line class="st0" x1="305.44" y1="241.19" x2="333.12" y2="241.19"/>
<line class="st0" x1="334.16" y1="213.43" x2="327.29" y2="210.99"/>
<line class="st0" x1="334.51" y1="209.08" x2="334.6" y2="219.96"/>
<line class="st0" x1="336.94" y1="220.91" x2="334.6" y2="219.96"/>
<line class="st0" x1="336.91" y1="210.26" x2="336.99" y2="221.14"/>
<line class="st0" x1="337.06" y1="210.2" x2="334.71" y2="209.24"/>
<line class="st0" x1="335.15" y1="227.65" x2="335.23" y2="235.7"/>
<line class="st0" x1="337.58" y1="236.41" x2="335.23" y2="235.7"/>
<line class="st0" x1="337.54" y1="228.53" x2="337.63" y2="236.58"/>
<line class="st0" x1="337.7" y1="228.48" x2="335.35" y2="227.77"/>
<line class="st0" x1="343.65" y1="212.68" x2="343.73" y2="223.56"/>
<line class="st0" x1="346.08" y1="224.52" x2="343.73" y2="223.56"/>
<line class="st0" x1="346.04" y1="213.86" x2="346.13" y2="224.74"/>
<line class="st0" x1="346.2" y1="213.81" x2="343.85" y2="212.85"/>
<line class="st0" x1="344.01" y1="231.7" x2="344.1" y2="238.93"/>
<line class="st0" x1="346.45" y1="239.56" x2="344.1" y2="238.93"/>
<line class="st0" x1="346.41" y1="232.49" x2="346.5" y2="239.71"/>
<line class="st0" x1="346.57" y1="232.45" x2="344.22" y2="231.81"/>
<line class="st0" x1="362.54" y1="222.92" x2="362.59" y2="229.12"/>
<line class="st0" x1="364.02" y1="229.66" x2="362.59" y2="229.12"/>
<line class="st0" x1="364" y1="223.6" x2="364.05" y2="229.79"/>
<line class="st0" x1="364.1" y1="223.56" x2="362.66" y2="223.02"/>
<line class="st0" x1="363.32" y1="237.72" x2="363.37" y2="244.3"/>
<line class="st0" x1="364.56" y1="244.88" x2="363.37" y2="244.3"/>
<line class="st0" x1="364.54" y1="238.43" x2="364.58" y2="245.02"/>
<line class="st0" x1="364.62" y1="238.4" x2="363.43" y2="237.82"/>
<line class="st0" x1="343.12" y1="217" x2="337.43" y2="215"/>
<line class="st0" x1="362.44" y1="224.39" x2="346.22" y2="218.22"/>
<line class="st0" x1="370.45" y1="227.53" x2="364.49" y2="225.36"/>
<line class="st0" x1="370.62" y1="216.39" x2="370.71" y2="236.05"/>
<line class="st0" x1="368.27" y1="237.8" x2="370.71" y2="236.05"/>
<line class="st0" x1="369.06" y1="250.5" x2="368.27" y2="237.8"/>
<line class="st0" x1="347.13" y1="242.93" x2="375.38" y2="252.82"/>
<line class="st0" x1="332.85" y1="241.01" x2="333.2" y2="271.82"/>
<line class="st0" x1="347.21" y1="242.67" x2="332.94" y2="242.58"/>
<line class="st0" x1="346.78" y1="261.73" x2="347.21" y2="242.67"/>
<polyline class="st0" points="353.57,245.37 353.57,240.14 353.57,237.97 354.26,235.97 356.26,234.4 "/>
<polyline class="st0" points="357.74,246.58 357.48,239.36 356.87,236.4 356.26,234.4 "/>
<polyline class="st0" points="360.53,247.54 360.53,241.01 360.01,237.45 358.61,235.18 356.61,234.49 "/>
<line class="st0" x1="353.04" y1="216.21" x2="352.96" y2="212.38"/>
<line class="st0" x1="341.44" y1="186.8" x2="352.96" y2="212.38"/>
<line class="st0" x1="359.31" y1="217.87" x2="352.78" y2="215.87"/>
<line class="st0" x1="359.22" y1="211.69" x2="359.31" y2="217.87"/>
<line class="st0" x1="370.97" y1="216.39" x2="359.57" y2="211.95"/>
<line class="st0" x1="349.56" y1="200.2" x2="359.57" y2="211.95"/>
<line class="st0" x1="347.74" y1="200.9" x2="349.56" y2="200.2"/>
<line class="st0" x1="370.62" y1="216.39" x2="364.44" y2="209.6"/>
<line class="st0" x1="358.27" y1="204.64" x2="362.44" y2="208.82"/>
<line class="st0" x1="364.88" y1="209.77" x2="362.7" y2="208.9"/>
<line class="st0" x1="364.36" y1="201.16" x2="364.44" y2="209.6"/>
<line class="st0" x1="361.92" y1="199.33" x2="364.62" y2="201.33"/>
<line class="st0" x1="362.27" y1="209.08" x2="361.92" y2="199.33"/>
<line class="st0" x1="358.18" y1="200.64" x2="361.92" y2="199.33"/>
<line class="st0" x1="358.27" y1="205.34" x2="358.18" y2="200.64"/>
<line class="st0" x1="352.7" y1="203.86" x2="358.27" y2="205.34"/>
<line class="st0" x1="345.21" y1="207.42" x2="345.21" y2="203.94"/>
<line class="st0" x1="336.6" y1="202.9" x2="336.68" y2="200.64"/>
<line class="st0" x1="368.53" y1="243.77" x2="375.26" y2="242.49"/>
<line class="st0" x1="375.61" y1="246.9" x2="375.5" y2="236.58"/>
<line class="st0" x1="377.82" y1="235.53" x2="375.5" y2="236.23"/>
<line class="st0" x1="377.93" y1="246.79" x2="377.82" y2="235.53"/>
<line class="st0" x1="375.61" y1="246.9" x2="377.93" y2="246.79"/>
<line class="st0" x1="381.18" y1="240.41" x2="377.93" y2="246.79"/>
<line class="st0" x1="393.25" y1="238.78" x2="381.3" y2="240.99"/>
<line class="st0" x1="383.97" y1="237.85" x2="383.97" y2="240.29"/>
<line class="st0" x1="377.82" y1="235.53" x2="384.43" y2="237.97"/>
<line class="st0" x1="375.15" y1="236.23" x2="377.82" y2="235.53"/>
<line class="st0" x1="381.18" y1="230.2" x2="381.3" y2="236.92"/>
<line class="st0" x1="388.14" y1="230.2" x2="381.18" y2="230.2"/>
<line class="st0" x1="388.26" y1="239.71" x2="388.14" y2="230.2"/>
<line class="st0" x1="393.6" y1="243.19" x2="393.36" y2="231.59"/>
<line class="st0" x1="396.38" y1="230.31" x2="393.36" y2="231.59"/>
<line class="st0" x1="396.73" y1="241.33" x2="396.73" y2="230.2"/>
<line class="st0" x1="398.99" y1="232.14" x2="399.08" y2="240.67"/>
<line class="st0" x1="397.95" y1="242.06" x2="399.08" y2="240.67"/>
<line class="st0" x1="396.38" y1="230.31" x2="398.99" y2="232.14"/>
<line class="st0" x1="404.39" y1="229.61" x2="398.38" y2="229.61"/>
<line class="st0" x1="397.08" y1="230.4" x2="398.38" y2="229.61"/>
<line class="st0" x1="404.47" y1="236.49" x2="404.39" y2="229.61"/>
<line class="st0" x1="421.01" y1="233.27" x2="399.17" y2="237.62"/>
<line class="st0" x1="412.31" y1="229.27" x2="412.39" y2="235.1"/>
<line class="st0" x1="419.88" y1="229.09" x2="419.96" y2="233.01"/>
<line class="st0" x1="412.31" y1="229.27" x2="419.88" y2="229.09"/>
<line class="st0" x1="395.86" y1="241.1" x2="398.03" y2="244.76"/>
<line class="st0" x1="392.99" y1="245.1" x2="398.03" y2="244.76"/>
<line class="st0" x1="395.86" y1="241.36" x2="392.99" y2="245.1"/>
<line class="st0" x1="400.3" y1="244.32" x2="396.21" y2="241.36"/>
<line class="st0" x1="397.6" y1="249.02" x2="400.3" y2="244.32"/>
<line class="st0" x1="397.51" y1="245.02" x2="397.6" y2="249.02"/>
<line class="st0" x1="394.55" y1="250.24" x2="397.6" y2="249.02"/>
<line class="st0" x1="394.64" y1="245.1" x2="394.73" y2="249.98"/>
<line class="st0" x1="412.31" y1="249.8" x2="421.97" y2="231.62"/>
<polyline class="st0" points="424.14,232.4 424.84,230.75 424.75,229.18 423.44,228.48 422.05,229.79 422.05,231.96 "/>
<line class="st0" x1="434.58" y1="258.68" x2="424.05" y2="232.14"/>
<line class="st0" x1="428.49" y1="236.32" x2="425.79" y2="236.32"/>
<line class="st0" x1="428.58" y1="240.41" x2="428.49" y2="236.32"/>
<line class="st0" x1="432.15" y1="240.49" x2="428.58" y2="240.41"/>
<line class="st0" x1="432.15" y1="244.41" x2="432.15" y2="240.49"/>
<line class="st0" x1="433.45" y1="244.84" x2="431.97" y2="244.76"/>
<line class="st0" x1="433.28" y1="255.2" x2="433.45" y2="244.84"/>
<line class="st0" x1="423.97" y1="249.02" x2="424.05" y2="247.19"/>
<line class="st0" x1="434.24" y1="292.79" x2="434.15" y2="258.07"/>
<line class="st0" x1="428.75" y1="260.42" x2="433.89" y2="262.25"/>
<line class="st0" x1="413.36" y1="255.57" x2="418.49" y2="257.39"/>
<line class="st1" x1="413.67" y1="288.09" x2="414.13" y2="277.19"/>
<line class="st0" x1="412.31" y1="249.8" x2="414.13" y2="277.19"/>
<line class="st0" x1="391.16" y1="256.53" x2="412.51" y2="251.43"/>
<line class="st0" x1="412.51" y1="254.91" x2="391.62" y2="259.09"/>
<line class="st0" x1="391.16" y1="266.74" x2="391.16" y2="255.61"/>
<line class="st0" x1="412.51" y1="251.43" x2="391.16" y2="256.53"/>
<line class="st0" x1="379.79" y1="250.5" x2="379.09" y2="278.81"/>
<line class="st0" x1="375.38" y1="252.82" x2="379.79" y2="250.5"/>
<line class="st0" x1="375.15" y1="258.85" x2="379.56" y2="258.16"/>
<line class="st0" x1="375.84" y1="268.37" x2="375.38" y2="252.82"/>
<line class="st0" x1="382.72" y1="296.88" x2="375.84" y2="268.37"/>
<line class="st0" x1="383.27" y1="259.55" x2="383.04" y2="263.73"/>
<line class="st0" x1="379.56" y1="263.96" x2="383.04" y2="263.73"/>
<line class="st0" x1="386.52" y1="260.01" x2="383.27" y2="259.55"/>
<line class="st0" x1="387.21" y1="265.58" x2="386.52" y2="260.01"/>
<line class="st0" x1="391.16" y1="266.74" x2="387.21" y2="265.58"/>
<line class="st0" x1="389.77" y1="285.54" x2="390" y2="266.74"/>
<line class="st0" x1="391.16" y1="255.61" x2="379.79" y2="250.5"/>
<line class="st0" x1="407.4" y1="264.89" x2="407.17" y2="259.32"/>
<line class="st0" x1="419.38" y1="255.62" x2="419.46" y2="265.76"/>
<line class="st0" x1="421.74" y1="266.65" x2="419.46" y2="265.76"/>
<line class="st0" x1="421.7" y1="256.72" x2="421.79" y2="266.86"/>
<line class="st0" x1="421.85" y1="256.66" x2="419.58" y2="255.77"/>
<line class="st0" x1="426.11" y1="258.23" x2="426.19" y2="268.37"/>
<line class="st0" x1="428.47" y1="269.26" x2="426.19" y2="268.37"/>
<line class="st0" x1="428.43" y1="259.33" x2="428.52" y2="269.47"/>
<line class="st0" x1="428.58" y1="259.27" x2="426.31" y2="258.38"/>
<line class="st0" x1="421.97" y1="258.51" x2="425.79" y2="259.38"/>
<line class="st0" x1="407.4" y1="264.89" x2="403.52" y2="265.82"/>
<line class="st0" x1="402.82" y1="259.72" x2="403.52" y2="265.82"/>
<line class="st0" x1="407" y1="258.85" x2="402.82" y2="259.72"/>
<line class="st0" x1="390.99" y1="260.42" x2="399.34" y2="264.25"/>
<line class="st0" x1="399.51" y1="269.65" x2="399.34" y2="264.25"/>
<line class="st0" x1="397.95" y1="279.74" x2="397.95" y2="269.65"/>
<line class="st0" x1="400.38" y1="282.35" x2="397.95" y2="279.74"/>
<line class="st0" x1="400.91" y1="269.82" x2="397.95" y2="269.65"/>
<line class="st0" x1="400.38" y1="282.35" x2="400.91" y2="269.82"/>
<line class="st0" x1="413.44" y1="270.69" x2="399.51" y2="265.47"/>
<line class="st0" x1="414.13" y1="277.19" x2="413.79" y2="287.57"/>
<line class="st0" x1="424.58" y1="279.91" x2="414.31" y2="276.61"/>
<line class="st0" x1="424.23" y1="289.14" x2="424.58" y2="279.91"/>
<line class="st0" x1="434.15" y1="285.31" x2="424.23" y2="281.31"/>
<line class="st0" x1="443.02" y1="288.79" x2="434.15" y2="285.31"/>
<line class="st0" x1="443.2" y1="296.97" x2="443.02" y2="288.79"/>
<line class="st0" x1="453.29" y1="294.01" x2="442.68" y2="290.18"/>
<line class="st0" x1="454.69" y1="306.02" x2="452.95" y2="300.8"/>
<line class="st0" x1="453.29" y1="294.01" x2="452.95" y2="300.8"/>
<line class="st0" x1="460.6" y1="297.49" x2="453.12" y2="294.71"/>
<line class="st0" x1="461.47" y1="316.11" x2="460.6" y2="297.49"/>
<line class="st0" x1="351.13" y1="290.7" x2="346.78" y2="261.73"/>
<line class="st0" x1="335.99" y1="289.49" x2="333.38" y2="271.21"/>
<line class="st0" x1="268.46" y1="231.49" x2="268.34" y2="228.76"/>
<line class="st0" x1="268.46" y1="231.49" x2="266.56" y2="231.94"/>
<line class="st0" x1="266.22" y1="228.96" x2="266.56" y2="231.94"/>
<line class="st0" x1="268.26" y1="228.53" x2="266.22" y2="228.96"/>
<line class="st0" x1="264.71" y1="232.51" x2="264.59" y2="229.78"/>
<line class="st0" x1="264.71" y1="232.51" x2="262.8" y2="232.96"/>
<line class="st0" x1="262.46" y1="229.98" x2="262.8" y2="232.96"/>
<line class="st0" x1="264.51" y1="229.56" x2="262.46" y2="229.98"/>
<line class="st0" x1="148.54" y1="281.36" x2="125.39" y2="282.52"/>
<line class="st0" x1="148.77" y1="277.42" x2="125.92" y2="278.7"/>
<path class="st0" d="M123.83,297.84l-10.36,0.52l-12.62,10.15c0,0-4.64,3.25-4.64,6.03c0,2.78-14.39,10.67-14.39,14.85
	s-7.89,5.57-7.89,5.57s-10.21,12.53-9.28,18.1c0.93,5.57-7.89,5.57-7.89,5.57s-0.93,6.5-6.03,6.5"/>
<line class="st0" x1="171.75" y1="293.66" x2="258.19" y2="291.05"/>
<path class="st0" d="M258.19,285.83l-0.7,40.38c0,0,7.19,1.33,9.05-0.52"/>
<line class="st0" x1="197.27" y1="288.79" x2="258.19" y2="285.83"/>
<rect x="182.83" y="288.44" class="st0" width="2.61" height="2.96"/>
<rect x="192.07" y="288.27" class="st0" width="2.61" height="2.96"/>
<line class="st0" x1="272.58" y1="299.46" x2="258.19" y2="291.05"/>
<line class="st0" x1="272.58" y1="295.17" x2="258.07" y2="286.24"/>
<line class="st0" x1="279.31" y1="290.18" x2="272.58" y2="295.17"/>
<line class="st0" x1="279.19" y1="293.66" x2="272.58" y2="299.46"/>
<line class="st0" x1="310.17" y1="301.79" x2="279.19" y2="294.36"/>
<line class="st0" x1="310.75" y1="297.03" x2="279.19" y2="290.53"/>
<line class="st0" x1="309.71" y1="307.35" x2="310.75" y2="297.03"/>
<line class="st0" x1="325.49" y1="307.01" x2="310.75" y2="297.03"/>
<line class="st0" x1="325.25" y1="311.18" x2="310.17" y2="301.79"/>
<line class="st0" x1="413.32" y1="312.23" x2="325.49" y2="307.01"/>
<line class="st0" x1="413.09" y1="316.17" x2="325.25" y2="311.18"/>
<line class="st0" x1="428.17" y1="326.62" x2="413.09" y2="316.17"/>
<line class="st0" x1="427.94" y1="323.37" x2="413.32" y2="312.23"/>
<line class="st0" x1="471.57" y1="325.57" x2="427.94" y2="323.37"/>
<line class="st0" x1="503.01" y1="329.98" x2="428.17" y2="326.62"/>
<line class="st0" x1="470.64" y1="298.42" x2="460.66" y2="299"/>
<line class="st0" x1="470.76" y1="301.67" x2="470.64" y2="298.42"/>
<line class="st0" x1="474.7" y1="301.21" x2="470.76" y2="301.67"/>
<line class="st0" x1="474.58" y1="297.38" x2="474.7" y2="301.21"/>
<line class="st0" x1="489.55" y1="297.03" x2="474.58" y2="297.38"/>
<line class="st0" x1="489.32" y1="299.93" x2="489.55" y2="297.03"/>
<line class="st0" x1="493.15" y1="299.46" x2="489.32" y2="299.93"/>
<line class="st0" x1="493.27" y1="296.56" x2="493.15" y2="299.46"/>
<line class="st0" x1="509.86" y1="295.87" x2="493.27" y2="296.56"/>
<line class="st0" x1="510.09" y1="300.62" x2="509.86" y2="295.87"/>
<line class="st0" x1="503.94" y1="295.87" x2="504.06" y2="290.18"/>
<polyline class="st0" points="516.01,289.49 510.09,289.14 504.06,290.18 "/>
<line class="st0" x1="508.93" y1="282.41" x2="508.93" y2="284.96"/>
<polyline class="st0" points="504.06,290.18 505.8,287.28 509.51,285.08 513.89,286.06 516.01,289.49 "/>
<line class="st0" x1="516.7" y1="304.11" x2="516.01" y2="289.49"/>
<line class="st0" x1="461.01" y1="306.77" x2="516.7" y2="304.11"/>
<line class="st0" x1="520.53" y1="320.7" x2="516.82" y2="303.76"/>
<line class="st0" x1="471.57" y1="325.57" x2="477.72" y2="317.45"/>
<line class="st0" x1="491.06" y1="317.33" x2="477.72" y2="317.45"/>
<line class="st0" x1="473.54" y1="322.67" x2="487.35" y2="323.48"/>
<line class="st0" x1="491.06" y1="317.33" x2="487.35" y2="323.48"/>
<line class="st0" x1="495.01" y1="320.81" x2="491.06" y2="317.33"/>
<line class="st0" x1="494.54" y1="329.52" x2="495.01" y2="321.16"/>
<rect x="475.16" y="324.76" class="st0" width="2.67" height="2.9"/>
<rect x="483" y="325.24" class="st0" width="2.67" height="2.9"/>
<rect x="489.8" y="322.34" class="st0" width="2.67" height="2.9"/>
<line class="st0" x1="494.02" y1="317.74" x2="503.01" y2="317.74"/>
<line class="st0" x1="493.96" y1="319.71" x2="494.02" y2="317.74"/>
<line class="st0" x1="503.01" y1="329.98" x2="502.78" y2="317.74"/>
<line class="st0" x1="498.2" y1="314.03" x2="498.14" y2="311.94"/>
<polyline class="st0" points="493.88,317.65 495.38,315.75 498.3,314.15 501.5,314.98 503.03,317.51 "/>
<line class="st0" x1="502.9" y1="324.29" x2="506.46" y2="324.38"/>
<line class="st0" x1="506.55" y1="321.08" x2="506.46" y2="324.38"/>
<line class="st0" x1="516.12" y1="321.16" x2="506.55" y2="321.08"/>
<line class="st0" x1="516.12" y1="324.56" x2="516.12" y2="321.16"/>
<line class="st0" x1="519.6" y1="324.29" x2="516.12" y2="324.56"/>
<line class="st0" x1="519.6" y1="320.64" x2="519.6" y2="324.29"/>
<line class="st0" x1="526.65" y1="320.64" x2="519.6" y2="320.64"/>
<line class="st0" x1="474.18" y1="321.51" x2="445.64" y2="312.11"/>
<line class="st0" x1="441.69" y1="315.07" x2="445.64" y2="312.11"/>
<line class="st0" x1="444.07" y1="316.11" x2="439.02" y2="314.37"/>
<line class="st0" x1="433.45" y1="310.2" x2="439.02" y2="314.37"/>
<line class="st0" x1="433.45" y1="310.2" x2="409.78" y2="305.67"/>
<line class="st0" x1="429.33" y1="309.39" x2="429.22" y2="303.12"/>
<polyline class="st0" points="443.43,313.74 441.28,311.36 438.27,309.79 435.13,308.28 432.99,304.28 429.22,303.12 "/>
<line class="st0" x1="444.94" y1="312.58" x2="442.5" y2="309.5"/>
<line class="st0" x1="448.48" y1="306.66" x2="442.68" y2="309.44"/>
<line class="st0" x1="452.25" y1="308.86" x2="448.48" y2="306.66"/>
<line class="st0" x1="455.73" y1="310.49" x2="452.25" y2="308.86"/>
<line class="st0" x1="459.85" y1="316.75" x2="455.73" y2="310.49"/>
<line class="st0" x1="454.16" y1="314.72" x2="452.95" y2="312.4"/>
<line class="st0" x1="450.16" y1="310.78" x2="452.95" y2="312.4"/>
<line class="st0" x1="461.47" y1="315.88" x2="461.47" y2="317.16"/>
<line class="st0" x1="412.57" y1="309.33" x2="398.99" y2="291.05"/>
<line class="st0" x1="389.77" y1="285.54" x2="398.99" y2="291.05"/>
<line class="st0" x1="387.85" y1="287.22" x2="389.77" y2="285.54"/>
<line class="st0" x1="385.15" y1="287.31" x2="387.85" y2="287.22"/>
<line class="st0" x1="385.94" y1="298.36" x2="385.15" y2="287.31"/>
<line class="st0" x1="412.57" y1="309.33" x2="382.72" y2="296.88"/>
<line class="st0" x1="306.66" y1="295.93" x2="348.52" y2="294.97"/>
<line class="st0" x1="352.09" y1="297.41" x2="348.52" y2="294.97"/>
<line class="st0" x1="356.09" y1="297.58" x2="352.09" y2="297.41"/>
<line class="st0" x1="367.92" y1="299.67" x2="358.35" y2="298.71"/>
<line class="st0" x1="356.09" y1="297.58" x2="358.35" y2="298.71"/>
<line class="st0" x1="367.92" y1="299.67" x2="374.02" y2="302.19"/>
<line class="st0" x1="380.72" y1="302.02" x2="374.02" y2="302.19"/>
<line class="st0" x1="391.77" y1="305.24" x2="380.54" y2="301.76"/>
<line class="st0" x1="383.76" y1="304.8" x2="391.77" y2="305.24"/>
<line class="st0" x1="380.72" y1="303.5" x2="383.76" y2="304.8"/>
<line class="st0" x1="374.54" y1="303.76" x2="380.72" y2="303.5"/>
<line class="st0" x1="364.62" y1="300.8" x2="374.54" y2="303.76"/>
<line class="st0" x1="351.22" y1="300.28" x2="364.62" y2="300.8"/>
<line class="st0" x1="339.03" y1="298.28" x2="351.22" y2="300.28"/>
<line class="st0" x1="329.11" y1="298.19" x2="339.03" y2="298.28"/>
<line class="st0" x1="311.8" y1="295.84" x2="329.11" y2="298.19"/>
<line class="st0" x1="337.9" y1="307.59" x2="337.9" y2="305.67"/>
<line class="st0" x1="380.37" y1="309.85" x2="380.37" y2="308.11"/>
<path class="st0" d="M172.1,277.92l19.09-3.14l22.1-1.65c0,0,2.18,0.09,11.84,3.92l4.69-0.96l15.06-0.17l31.33,10.62
	c0,0,12.88,0.87,31.18,1.8l28.6,1.16l15.14,1.22l14.45,2.78l17.14,3.39"/>
<path class="st0" d="M508.93,359.68c-6.61-1.97-7.34-2.41-7.34-2.41l-2-27.41"/>
<polyline class="st0" points="501.59,357.28 499.76,357.6 495.82,355.62 493.38,355.62 489.67,354.46 484.1,353.65 479.34,350.98 
	469.83,349.82 460.89,347.04 451.73,345.76 449.99,344.25 447.32,342.98 444.88,342.74 442.68,343.21 440.94,344.02 435.6,343.56 
	433.39,343.32 429.33,344.02 432.81,346.22 436.06,346.57 439.31,346.46 442.91,345.99 445.69,346.92 447.09,348.55 447.9,349.13 
	448.71,348.08 450.8,348.08 452.31,348.66 459.5,352.49 465.53,358.06 472.15,366.88 475.74,371.98 477.49,378.02 481.08,384.51 "/>
<polyline class="st0" points="467.04,357.25 475.28,363.63 471.92,354.46 474.58,356.09 475.98,358.06 478.99,359.68 480.5,362.12 
	482.13,364.09 486.88,365.95 489.9,368.39 491.76,373.03 493.61,375.12 496.4,375.23 497.33,378.13 497.91,380.45 502.9,383.93 "/>
<polyline class="st0" points="478.99,359.68 482.01,358.87 480.73,356.78 479.11,355.39 479.46,354 483.4,354.58 487.12,358.41 
	491.06,359.45 495.93,363.98 498.72,365.83 502.9,370.47 506.72,370.82 508.58,372.45 509.28,376.28 511.6,378.13 513.57,380.45 
	514.73,384.28 516.24,387.18 516.24,390.66 516.36,394.03 517.63,397.63 519.72,401.11 520.88,406.44 "/>
<polyline class="st0" points="536.89,396.23 532.72,390.55 527.96,385.56 524.13,385.56 521.81,382.31 520.18,379.29 516.01,377.09 
	511.13,375.58 509.28,375.35 "/>
<polyline class="st0" points="582.84,394.49 573.67,387.3 564.86,380.8 556.85,374.3 552.67,369.43 547.34,365.14 542.81,361.19 
	530.39,352.61 "/>
<polyline class="st0" points="543.97,391.36 537.82,386.25 532.25,382.66 526.8,374.42 515.43,368.15 522.27,375.81 "/>
<polyline class="st0" points="568.8,393.56 564.74,388.81 558.94,385.56 551.63,379.64 547.45,376.16 542.69,375 544.2,378.25 
	545.94,379.64 546.29,381.03 547.57,381.96 "/>
<polyline class="st0" points="540.37,371.52 531.87,362.24 526.65,320.64 "/>
<polyline class="st0" points="531.87,362.24 527.96,362 525.41,358.52 520.18,355.04 511.83,354 508.47,353.07 504.06,349.59 
	503.24,350.14 502.2,330.13 "/>
<line class="st0" x1="502.9" y1="357.6" x2="503.24" y2="350.14"/>
<path class="st0" d="M504.38,413.97c0.05-1.78,0.05-4.23-1.17-4.23c-6.12-1.22-6.12-8.56-10.64-11.65"/>
<path class="st0" d="M473.96,413.79c-8.67-12.62-16.01-24.85-24.58-37.09c-4.89-6.12-6.12-13.46-9.79-20.8
	c-3.67-4.89-12.23-6.12-15.71-10.73"/>
<polyline class="st0" points="473.08,388.34 469.83,379.52 462.87,375.81 461.47,368.39 448.48,360.96 "/>
<path class="st0" d="M444.94,413.97c-0.83-1.27-1.66-2.54-2.5-3.81"/>
<path class="st0" d="M411.78,413.98c0.9-5.46,2.12-9.13,7.02-12.8c3.67-3.67,4.89-9.79,7.41-14.22"/>
<path class="st0" d="M417.85,389.27c-2.32,7.43-3.71,14.85-3.71,14.85l-1.39,2.78"/>
<path class="st0" d="M409.03,397.16c0.4,5.58-0.09,10.98,0.67,16.5"/>
<path class="st0" d="M396.03,413.66c-0.48-5.14-1.71-10.04-0.48-13.71c2.45-4.89,3.67-11.01,6.12-17.13
	c1.22-6.12,7.34-11.01,10.15-17.69"/>
<polyline class="st0" points="404.85,357.71 404.39,369.78 400.67,382.31 "/>
<polyline class="st0" points="391.86,361.89 393.25,380.92 395.57,384.63 396.03,399.48 "/>
<path class="st0" d="M381.64,362.35c1.67,15.58,6.56,30.26-2,44.94c-1.22,1.22-3.67,2.45-3.01,6.43"/>
<path class="st0" d="M346.84,413.89c0-2.33,0-4.66,0-6.99"/>
<polyline class="st0" points="370.51,397.16 370.97,408.3 376.08,411.55 375.15,393.91 371.43,383.24 "/>
<path class="st0" d="M366.33,394.38c-3.81-6.66-8.71-10.33-12.38-15.22c-1.22-3.67-2.45-7.34-4.89-9.79
	c-12.23-4.89-18.35-17.13-25.69-26.92c-9.79-2.45-17.13-11.01-29.9-8.87c4.49,5.46,3.69-1.58,0,0c4.21,7.65,12.77,10.1,17.67,16.21
	c4.89,7.34,8.56,13.46,12.23,20.8c1.22,2.45,0,3.67,1.22,6.12c6.12,11.01,11.01,23.25,10.7,37.19"/>
<polyline class="st0" points="359.37,404.59 348.69,395.3 347.3,386.95 343.12,382.77 338.02,374.88 332.91,367.92 "/>
<polyline class="st0" points="429.33,344.02 421.56,341 413.67,341.47 406.71,338.22 399.28,341 393.25,339.61 382.11,336.36 
	369.11,340.07 361.69,337.29 352.41,336.83 336.16,332.18 322.7,333.11 312.49,329.4 309.71,307.35 "/>
<polyline class="st0" points="312.49,329.4 302.74,325.69 292.53,325.69 284.64,325.69 277.68,325.22 279.31,290.18 "/>
<polyline class="st0" points="277.68,325.22 270.84,323.83 272.58,295.17 "/>
<path class="st0" d="M290.21,413.77c-1.11-6.47,0.12-13.81,1.34-19.93c0-2.45-2.45-3.67-1.22-6.12c1.22-2.45,3.67-4.89,5.45-7.73"/>
<path class="st0" d="M297.64,364.21c-9.76,2.71-25.66-2.18-26.88,12.5c0,7.34-1.22,14.68-4.89,22.02c-1.22,4.89,0,9.79-0.57,15.13"
	/>
<path class="st0" d="M250.76,386.02c3.25-10.67,6.03-12.07,6.03-12.07l12.07-6.96"/>
<path class="st0" d="M287.43,361.42c-4.18-6.5-5.57-7.43-5.57-7.43l-6.5-10.67"/>
<path class="st0" d="M293.46,333.58"/>
<path class="st0" d="M288.36,328.01c-5.37-0.24-10.26-2.69-11.48,0.98c-4.89,12.23-19.58,15.9-30.59,19.58
	c-13.46,6.12-26.92,11.01-39.15,20.8c-2.45,2.45-6.12,6.12-6.12,11.01c1.22,12.23-4.89,23.25-12.16,33.34"/>
<path class="st0" d="M198.89,413.95c1.5-5.37,3.14-10.75,5.22-15.94c1.42-3.57,3.9-7.7,2.11-11.52"/>
<path class="st0" d="M217.49,413.95c0.66-4.21,3.11-7.88,3.11-11.55c1.22-9.79-6.12-17.13-9.79-25.69c0-1.22,1.22-1.22,0.97-2.75"/>
<path class="st0" d="M234.52,370.24c8.82-5.57,20.42-16.71,25.53-11.14"/>
<path class="st0" d="M270.84,323.83c0,0-17.75,7.43-18.22,10.67c-0.46,3.25-19.96,13.92-19.96,13.92l-10.67,12.53"/>
<path class="st0" d="M257.49,326.21c0,0-9.51-18.62-24.37-6.56c-14.85,12.07-26.45,5.11-26.45,5.11v-4.18h-4.64
	c0,0-1.39,8.35-6.03,0.93l-13.46,3.71l-0.93-8.82l-19.03,0.93c0,0-9.28,9.28-15.32,7.89c-6.03-1.39-22.74,15.32-22.74,15.32"/>
<path class="st0" d="M145.64,308.63c0,0-10.21-9.17-22.86-2.78l3.13-27.15"/>
<path class="st0" d="M120.81,306.19c0,0-3.71-2.78-4.64,3.25"/>
<path class="st0" d="M58.62,370.71l6.5-7.43c0,0,2.32-12.07,6.96-12.07c0,0-2.78-3.71,7.89-14.39"/>
<path class="st0" d="M98.07,336.83c0,0,1.86-4.64,5.57-5.11c3.71-0.46,6.5-8.35,6.5-8.35s3.71-7.89,8.35-6.5"/>
<path class="st0" d="M134.73,324.29c0,0-5.57-0.93-11.14,0.46c-5.57,1.39-7.89,10.67-7.89,10.67s-13.92-0.93-15.32,5.57"/>
<path class="st0" d="M85.07,374.88c0,0,12.07-3.25,12.53-5.57c0.46-2.32,8.35-6.5,12.53-5.57"/>
<path class="st0" d="M125.45,379.06c0,0-0.46-13,4.18-18.1c2.19-2.4-7.43,2.78-7.43,2.78l-1.86-2.78l-6.96-0.46l-5.11,3.71"/>
<path class="st0" d="M175.11,348.89c0,0,1.16-14.16-0.23-15.55s6.96-9.51,6.73-16.94"/>
<path class="st0" d="M162.58,317.33l-0.99,2.84l-2.96,8.53l-3.48,4.18l-0.23,3.48c0,0-6.5,2.78-9.51,6.27s-5.11,6.03-5.11,6.03
	l-3.02,6.73l-7.66,5.57"/>
<path class="st0" d="M141.23,404.12v-18.33l1.86-8.12c0,0-4.64-2.78-3.25-11.37c0,0,4.87-8.59,6.27-8.59c1.39,0,0.46-5.8,0.46-5.8
	s5.34-4.41,5.8-6.03"/>
<line class="st0" x1="174.88" y1="333.35" x2="155.16" y2="332.88"/>
<path class="st0" d="M181.18,320.2"/>
<line class="st0" x1="181.18" y1="320.2" x2="161.6" y2="320.17"/>
<line class="st0" x1="179.87" y1="323.34" x2="160.03" y2="323.69"/>
<line class="st0" x1="178.13" y1="326.56" x2="158.98" y2="326.82"/>
<line class="st0" x1="176.56" y1="329.34" x2="157.77" y2="329.26"/>
</svg>
